<?xml version="1.0" encoding="UTF-8"?>
<svg id="Capa_1" xmlns="http://www.w3.org/2000/svg" version="1.1" viewBox="0 0 250 150">
  <!-- Generator: Adobe Illustrator 29.8.2, SVG Export Plug-In . SVG Version: 2.1.1 Build 3)  -->
  <defs>
    <style>
      .st0 {
        fill: none;
        stroke: #9b9b9b;
        stroke-miterlimit: 10;
        stroke-width: 2px;
      }
    </style>
  </defs>
  <path class="st0" d="M70,44.99h30v15c0,8.28-6.72,15-15,15h0c-8.28,0-15-6.72-15-15v-15h0Z"/>
  <line class="st0" x1="80" y1="44.99" x2="80" y2="34.99"/>
  <line class="st0" x1="90" y1="44.99" x2="90" y2="34.99"/>
  <path class="st0" d="M85,74.99v20c0,11.05,8.95,20,20,20h0c11.05,0,20-8.95,20-20v-30c0-11.05,8.95-20,20-20h0c11.05,0,20,8.95,20,20v20.05l-5.11,5.11"/>
  <path class="st0" d="M150,90.01c0,16.65,15,25,15,25,0,0,15-8.35,15-25,0-20.66-30-20.62-30,0Z"/>
  <line class="st0" x1="165" y1="85.04" x2="170.11" y2="90.15"/>
  <line class="st0" x1="165" y1="85.04" x2="165" y2="100.04"/>
</svg>