<?xml version="1.0" encoding="UTF-8"?>
<svg id="Capa_1" xmlns="http://www.w3.org/2000/svg" version="1.1" viewBox="0 0 250 150">
  <!-- Generator: Adobe Illustrator 29.8.2, SVG Export Plug-In . SVG Version: 2.1.1 Build 3)  -->
  <defs>
    <style>
      .st0 {
        fill: #fff;
      }

      .st1 {
        fill: #00213a;
      }
    </style>
  </defs>
  <g>
    <polygon class="st0" points="67.32 69.08 67.32 80.92 64.68 80.92 64.68 72.07 60.76 80.92 58.8 80.92 54.88 72.07 54.88 80.92 52.24 80.92 52.24 69.08 55.79 69.08 59.78 78.11 63.77 69.08 67.32 69.08"/>
    <path class="st0" d="M95.78,72.36h0c0,1.81-1.47,3.28-3.28,3.28h-.33l3.41,5.29h-2.65l-3.02-4.64c-.26-.41-.71-.65-1.2-.65h0c-.91,0-1.65.74-1.65,1.65v3.63h-2.64v-4.33c0-1.54,1.25-2.79,2.79-2.79h4.48c.8,0,1.45-.65,1.45-1.45h0c0-.8-.65-1.45-1.45-1.45h-7.27v-1.84h8.08c1.81,0,3.28,1.47,3.28,3.28Z"/>
    <path class="st0" d="M77.12,69.26l-.08-.19h-2.51l-.08.19-5.13,11.66h2.65l.58-1.31h6.48l.58,1.31h2.65l-5.13-11.66ZM73.35,77.78l2.43-5.49,2.43,5.49h-4.86Z"/>
    <path class="st0" d="M109.19,77.44h0c0,1.92-1.56,3.48-3.48,3.48h-7.75v-1.84h6.37c.91,0,1.65-.74,1.65-1.65h0c0-.91-.74-1.65-1.65-1.65h-3.01c-1.86,0-3.36-1.5-3.36-3.36h0c0-1.86,1.5-3.36,3.36-3.36h7.25s0,1.84,0,1.84h-5.87c-.84,0-1.52.68-1.52,1.52h0c0,.84.68,1.52,1.52,1.52h3.01c1.92,0,3.48,1.56,3.48,3.48Z"/>
    <polygon class="st0" points="123.03 69.08 123.03 70.91 118.31 70.91 118.31 80.92 115.46 80.92 115.46 70.91 110.74 70.91 110.74 69.08 123.03 69.08"/>
    <path class="st0" d="M127.43,72.06v2.02h8.61v1.84h-8.61v3.17h8.61v1.84h-11.46v-9.02c0-1.56,1.27-2.83,2.83-2.83h8.63v1.84h-7.46c-.64,0-1.15.51-1.15,1.15Z"/>
    <rect class="st0" x="115.46" y="69.08" width="2.85" height="0"/>
    <path class="st0" d="M149.91,80.86h-2.65l-3.8-4.08c-.23-.26-.56-.41-.91-.41h0c-.59,0-1.07.48-1.07,1.07v3.47h-2.85v-11.85h2.85v5.47h.05l5.27-5.47h2.67l-5.24,5.47,5.68,6.32Z"/>
  </g>
  <path class="st0" d="M184.13,72.36h0c0,1.81-1.47,3.28-3.28,3.28h-.33s3.41,5.22,3.41,5.22h-2.65l-3.02-4.58c-.26-.41-.71-.65-1.2-.65h0c-.91,0-1.65.74-1.65,1.65v3.57s-2.64,0-2.64,0v-4.27c0-1.54,1.25-2.79,2.79-2.79h4.48c.8,0,1.45-.65,1.45-1.45h0c0-.8-.65-1.45-1.45-1.45h-7.27v-1.84h8.08c1.81,0,3.28,1.47,3.28,3.28Z"/>
  <path class="st1" d="M165.47,69.26l-.08-.19h-2.51l-.08.19-5.13,11.6h2.65l.58-1.25h6.48l.58,1.25h2.65l-5.13-11.6ZM161.7,77.78l2.43-5.49,2.43,5.49h-4.86Z"/>
  <path class="st1" d="M189.14,73.55v2.89h0v2.65h4.32c.91,0,1.65-.74,1.65-1.65v-1.52h-3.09v-1.84h5.73v4.05c0,1.54-1.25,2.73-2.79,2.73h-8.67v-8.96c0-1.56,1.26-2.82,2.82-2.82h8.02v1.83h-6.84c-.63,0-1.15.52-1.15,1.15v1.49h0Z"/>
</svg>